<?xml version="1.0" standalone="no"?>
<!DOCTYPE svg PUBLIC "-//W3C//DTD SVG 20010904//EN"
 "http://www.w3.org/TR/2001/REC-SVG-20010904/DTD/svg10.dtd">
<svg version="1.0" xmlns="http://www.w3.org/2000/svg"
 width="672.000000pt" height="672.000000pt" viewBox="0 0 672.000000 672.000000"
 preserveAspectRatio="xMidYMid meet">
<metadata>
Created by potrace 1.11, written by Peter Selinger 2001-2013
</metadata>
<g transform="translate(0.000000,672.000000) scale(0.100000,-0.100000)"
fill="#000000" stroke="none">
<path d="M1399 6492 c-122 -264 -230 -606 -279 -882 -11 -63 -22 -126 -25
-139 -2 -13 -7 -56 -11 -95 -3 -39 -8 -74 -10 -77 -5 -10 -18 -259 -18 -369 0
-109 10 -326 19 -395 3 -22 7 -60 10 -85 6 -45 30 -197 40 -255 30 -162 143
-545 195 -660 9 -22 32 -74 50 -115 46 -107 142 -297 190 -377 23 -37 42 -70
43 -74 1 -4 -11 -22 -28 -40 -16 -19 -55 -63 -85 -99 -30 -36 -58 -67 -61 -70
-3 -3 -25 -27 -49 -55 -23 -27 -68 -79 -100 -115 -32 -36 -138 -157 -237 -270
-190 -218 -232 -266 -248 -284 -30 -32 -75 -118 -90 -170 -27 -91 -17 -215 23
-300 77 -165 246 -267 420 -253 61 5 285 69 822 237 228 71 555 172 565 174 6
1 51 15 100 31 50 15 95 28 100 28 6 0 73 -38 150 -84 372 -225 772 -382 1185
-465 88 -17 191 -35 230 -40 25 -3 55 -7 68 -9 21 -3 111 -12 222 -21 59 -4
417 -4 455 0 17 2 71 8 120 12 50 4 92 8 95 9 3 1 37 5 75 9 60 7 116 16 235
40 286 58 602 165 875 296 77 38 170 85 207 106 l68 39 0 312 0 313 -102 -68
c-248 -162 -462 -269 -748 -372 -48 -17 -225 -69 -275 -80 -27 -7 -59 -14 -70
-16 -51 -12 -225 -43 -275 -49 -25 -3 -61 -7 -80 -10 -140 -17 -472 -24 -580
-11 -25 2 -76 8 -115 11 -38 3 -92 10 -120 15 -27 5 -70 11 -95 14 -25 4 -92
18 -150 32 -58 14 -112 27 -120 29 -334 82 -735 271 -1047 493 -61 44 -114 78
-116 76 -2 -3 -33 -13 -68 -23 -93 -27 -220 -65 -334 -101 -55 -18 -127 -40
-160 -49 -61 -18 -208 -63 -619 -190 -125 -39 -233 -71 -238 -71 -7 0 150 185
216 256 6 6 22 24 35 40 31 37 144 167 151 174 3 3 34 39 70 80 36 41 70 80
75 86 6 6 35 39 65 74 30 35 60 68 65 74 6 6 39 45 75 86 36 41 75 85 87 99
l22 24 -46 66 c-25 36 -65 93 -89 126 -215 304 -415 783 -489 1172 -8 43 -17
89 -20 102 -2 14 -7 45 -10 70 -3 25 -7 62 -10 81 -26 201 -26 593 1 779 34
240 83 451 153 658 27 81 56 162 65 178 9 17 16 33 16 37 0 11 95 207 138 286
l40 72 -296 0 -297 0 -26 -58z"/>
</g>
</svg>
